<svg width="72" height="72" viewBox="0 0 72 72" xmlns="http://www.w3.org/2000/svg">
  <g fill="none" fill-rule="evenodd">
    <circle cx="36" cy="36" r="28" fill="#FFF4D5"/>
    <path d="M33.4 18l5.1 10.7 11.8 1.7c1.8.3 2.6 2.5 1.2 3.7l-8.5 8.3 2 11.7c.3 1.8-1.6 3.2-3.2 2.3L36 51.4l-10.8 5.7c-1.6.9-3.5-.5-3.2-2.3l2-11.7-8.5-8.3c-1.4-1.2-.6-3.3 1.2-3.7l11.8-1.7 5.1-10.7c.8-1.6 3-1.6 3.8 0Z" fill="#F9A03F"/>
    <path d="M48.7 19.5c1.4 0 2.5 1.3 2.2 2.7l-.6 2.6c-.2.8-.8 1.4-1.5 1.7l-6 2c-1.7.6-3.2-1.2-2.4-2.8l3-5.3c.4-.8 1.2-1.2 2-1.2h3.3Z" fill="#F66E2F"/>
  </g>
</svg>
